{
	"asset":{
		"generator":"Khronos glTF Blender I/O v4.3.47",
		"version":"2.0"
	},
	"extensionsUsed":[
		"KHR_materials_transmission",
		"KHR_materials_ior"
	],
	"scene":0,
	"scenes":[
		{
			"name":"Scene",
			"nodes":[
				4
			]
		}
	],
	"nodes":[
		{
			"mesh":0,
			"name":"Keyboard",
			"translation":[
				-2.1099555492401123,
				0.1715368926525116,
				-0.9199201464653015
			]
		},
		{
			"mesh":1,
			"name":"Camera",
			"rotation":[
				0.7071068286895752,
				0,
				0,
				0.7071068286895752
			],
			"scale":[
				0.030293108895421028,
				0.030293110758066177,
				0.030293110758066177
			],
			"translation":[
				0,
				0.0842689722776413,
				3.3498334884643555
			]
		},
		{
			"mesh":2,
			"name":"Grips"
		},
		{
			"children":[
				1,
				2
			],
			"mesh":3,
			"name":"Top Body",
			"rotation":[
				-0.025839634239673615,
				-0.0018069995567202568,
				-0.003218690399080515,
				0.9996592998504639
			],
			"translation":[
				0,
				0.12802903354167938,
				-1.4896490573883057
			]
		},
		{
			"children":[
				0,
				3
			],
			"mesh":4,
			"name":"Bottom Body",
			"rotation":[
				0.0020789029076695442,
				0.706591010093689,
				0.0015699263894930482,
				0.7076174020767212
			]
		}
	],
	"animations":[
		{
			"channels":[
				{
					"sampler":0,
					"target":{
						"node":3,
						"path":"rotation"
					}
				}
			],
			"name":"Top BodyAction",
			"samplers":[
				{
					"input":40,
					"interpolation":"LINEAR",
					"output":41
				}
			]
		}
	],
	"materials":[
		{
			"doubleSided":true,
			"name":"Material.003",
			"pbrMetallicRoughness":{
				"baseColorFactor":[
					0.0004890623968094587,
					0.0004890623968094587,
					0.0004890623968094587,
					1
				],
				"metallicFactor":0,
				"roughnessFactor":0.5
			}
		},
		{
			"doubleSided":true,
			"extensions":{
				"KHR_materials_transmission":{
					"transmissionFactor":1
				},
				"KHR_materials_ior":{
					"ior":1.4500000476837158
				}
			},
			"name":"Material",
			"pbrMetallicRoughness":{
				"baseColorFactor":[
					0.007755971513688564,
					0.001695506856776774,
					0.8006623387336731,
					1
				],
				"metallicFactor":0,
				"roughnessFactor":0
			}
		},
		{
			"doubleSided":true,
			"name":"Body",
			"pbrMetallicRoughness":{
				"baseColorFactor":[
					0.0528603196144104,
					0.05286070704460144,
					0.05286068469285965,
					1
				],
				"roughnessFactor":0.3545454740524292
			}
		},
		{
			"doubleSided":true,
			"name":"Screen Mat",
			"pbrMetallicRoughness":{
				"baseColorFactor":[
					0.0528603196144104,
					0.05286070704460144,
					0.05286068469285965,
					1
				],
				"roughnessFactor":0.33070865273475647
			}
		},
		{
			"doubleSided":true,
			"emissiveFactor":[
				1,
				1,
				1
			],
			"emissiveTexture":{
				"index":0
			},
			"name":"Screen Emitter",
			"pbrMetallicRoughness":{
				"baseColorTexture":{
					"index":1
				},
				"metallicFactor":0,
				"roughnessFactor":0.5
			}
		},
		{
			"doubleSided":true,
			"emissiveFactor":[
				0.30000001192092896,
				0.30000001192092896,
				0.30000001192092896
			],
			"name":"Screen Mat Text",
			"pbrMetallicRoughness":{
				"metallicFactor":0,
				"roughnessFactor":0.5
			}
		},
		{
			"doubleSided":true,
			"name":"TouchPad",
			"pbrMetallicRoughness":{
				"baseColorFactor":[
					0.04020515829324722,
					0.040205396711826324,
					0.040205396711826324,
					1
				],
				"metallicFactor":0.8629559278488159,
				"roughnessFactor":0.31492483615875244
			}
		},
		{
			"doubleSided":true,
			"name":"Knurling",
			"pbrMetallicRoughness":{
				"roughnessFactor":0.3545454740524292
			}
		}
	],
	"meshes":[
		{
			"name":"Plane",
			"primitives":[
				{
					"attributes":{
						"POSITION":0,
						"NORMAL":1,
						"TEXCOORD_0":2
					},
					"indices":3,
					"material":0
				}
			]
		},
		{
			"name":"Cube",
			"primitives":[
				{
					"attributes":{
						"POSITION":4,
						"NORMAL":5,
						"TEXCOORD_0":6
					},
					"indices":7,
					"material":1
				}
			]
		},
		{
			"name":"Plane.021",
			"primitives":[
				{
					"attributes":{
						"POSITION":8,
						"NORMAL":9,
						"TEXCOORD_0":10
					},
					"indices":11,
					"material":2
				}
			]
		},
		{
			"name":"Plane.001",
			"primitives":[
				{
					"attributes":{
						"POSITION":12,
						"NORMAL":13,
						"TEXCOORD_0":14
					},
					"indices":15,
					"material":2
				},
				{
					"attributes":{
						"POSITION":16,
						"NORMAL":17,
						"TEXCOORD_0":18
					},
					"indices":19,
					"material":3
				},
				{
					"attributes":{
						"POSITION":20,
						"NORMAL":21,
						"TEXCOORD_0":22
					},
					"indices":23,
					"material":4
				},
				{
					"attributes":{
						"POSITION":24,
						"NORMAL":25,
						"TEXCOORD_0":26
					},
					"indices":27,
					"material":5
				}
			]
		},
		{
			"name":"Plane.019",
			"primitives":[
				{
					"attributes":{
						"POSITION":28,
						"NORMAL":29,
						"TEXCOORD_0":30
					},
					"indices":31,
					"material":2
				},
				{
					"attributes":{
						"POSITION":32,
						"NORMAL":33,
						"TEXCOORD_0":34
					},
					"indices":35,
					"material":6
				},
				{
					"attributes":{
						"POSITION":36,
						"NORMAL":37,
						"TEXCOORD_0":38
					},
					"indices":39,
					"material":7
				}
			]
		}
	],
	"textures":[
		{
			"sampler":0,
			"source":0
		},
		{
			"sampler":0,
			"source":0
		}
	],
	"images":[
		{
			"mimeType":"image/png",
			"name":"Screenshot (1)",
			"uri":"Screenshot%201.png"
		}
	],
	"accessors":[
		{
			"bufferView":0,
			"componentType":5126,
			"count":389436,
			"max":[
				4.373413562774658,
				0.01165750902146101,
				1.3672775030136108
			],
			"min":[
				-0.1496153473854065,
				-0.05155565217137337,
				-0.33885350823402405
			],
			"type":"VEC3"
		},
		{
			"bufferView":1,
			"componentType":5126,
			"count":389436,
			"type":"VEC3"
		},
		{
			"bufferView":2,
			"componentType":5126,
			"count":389436,
			"type":"VEC2"
		},
		{
			"bufferView":3,
			"componentType":5125,
			"count":2310264,
			"type":"SCALAR"
		},
		{
			"bufferView":4,
			"componentType":5126,
			"count":6144,
			"max":[
				0.8120098114013672,
				0.812050998210907,
				0.8120030164718628
			],
			"min":[
				-0.8120097517967224,
				-0.8119685649871826,
				-0.8120167851448059
			],
			"type":"VEC3"
		},
		{
			"bufferView":5,
			"componentType":5126,
			"count":6144,
			"type":"VEC3"
		},
		{
			"bufferView":6,
			"componentType":5126,
			"count":6144,
			"type":"VEC2"
		},
		{
			"bufferView":7,
			"componentType":5123,
			"count":9216,
			"type":"SCALAR"
		},
		{
			"bufferView":8,
			"componentType":5126,
			"count":5760,
			"max":[
				1.949232578277588,
				0.08040449768304825,
				0.04020936042070389
			],
			"min":[
				-1.949232578277588,
				-0.037053871899843216,
				-0.03538008779287338
			],
			"type":"VEC3"
		},
		{
			"bufferView":9,
			"componentType":5126,
			"count":5760,
			"type":"VEC3"
		},
		{
			"bufferView":10,
			"componentType":5126,
			"count":5760,
			"type":"VEC2"
		},
		{
			"bufferView":11,
			"componentType":5123,
			"count":32256,
			"type":"SCALAR"
		},
		{
			"bufferView":12,
			"componentType":5126,
			"count":58604,
			"max":[
				2.4975974559783936,
				0.15449661016464233,
				3.469655990600586
			],
			"min":[
				-2.4975974559783936,
				-0.01900673657655716,
				-0.02282087691128254
			],
			"type":"VEC3"
		},
		{
			"bufferView":13,
			"componentType":5126,
			"count":58604,
			"type":"VEC3"
		},
		{
			"bufferView":14,
			"componentType":5126,
			"count":58604,
			"type":"VEC2"
		},
		{
			"bufferView":15,
			"componentType":5123,
			"count":330072,
			"type":"SCALAR"
		},
		{
			"bufferView":16,
			"componentType":5126,
			"count":32650,
			"max":[
				2.4819369316101074,
				0.10778675973415375,
				3.4535844326019287
			],
			"min":[
				-2.4819369316101074,
				0.04656735807657242,
				-0.00699941860511899
			],
			"type":"VEC3"
		},
		{
			"bufferView":17,
			"componentType":5126,
			"count":32650,
			"type":"VEC3"
		},
		{
			"bufferView":18,
			"componentType":5126,
			"count":32650,
			"type":"VEC2"
		},
		{
			"bufferView":19,
			"componentType":5123,
			"count":116400,
			"type":"SCALAR"
		},
		{
			"bufferView":20,
			"componentType":5126,
			"count":5101,
			"max":[
				2.3618640899658203,
				0.10797704011201859,
				3.237013101577759
			],
			"min":[
				-2.3618640899658203,
				0.10763875395059586,
				0.3032219707965851
			],
			"type":"VEC3"
		},
		{
			"bufferView":21,
			"componentType":5126,
			"count":5101,
			"type":"VEC3"
		},
		{
			"bufferView":22,
			"componentType":5126,
			"count":5101,
			"type":"VEC2"
		},
		{
			"bufferView":23,
			"componentType":5123,
			"count":26592,
			"type":"SCALAR"
		},
		{
			"bufferView":24,
			"componentType":5126,
			"count":74,
			"max":[
				0.5684731602668762,
				0.0630173608660698,
				0.033538926392793655
			],
			"min":[
				-0.568473219871521,
				0.06288522481918335,
				0.023834310472011566
			],
			"type":"VEC3"
		},
		{
			"bufferView":25,
			"componentType":5126,
			"count":74,
			"type":"VEC3"
		},
		{
			"bufferView":26,
			"componentType":5126,
			"count":74,
			"type":"VEC2"
		},
		{
			"bufferView":27,
			"componentType":5123,
			"count":192,
			"type":"SCALAR"
		},
		{
			"bufferView":28,
			"componentType":5126,
			"count":50696,
			"max":[
				2.4993484020233154,
				0.19139906764030457,
				1.981082797050476
			],
			"min":[
				-2.4993481636047363,
				-0.006910040974617004,
				-1.510357141494751
			],
			"type":"VEC3"
		},
		{
			"bufferView":29,
			"componentType":5126,
			"count":50696,
			"type":"VEC3"
		},
		{
			"bufferView":30,
			"componentType":5126,
			"count":50696,
			"type":"VEC2"
		},
		{
			"bufferView":31,
			"componentType":5123,
			"count":300474,
			"type":"SCALAR"
		},
		{
			"bufferView":32,
			"componentType":5126,
			"count":1197,
			"max":[
				1.0273051261901855,
				0.19139759242534637,
				1.7568833827972412
			],
			"min":[
				-1.027304768562317,
				0.19067539274692535,
				0.5983690023422241
			],
			"type":"VEC3"
		},
		{
			"bufferView":33,
			"componentType":5126,
			"count":1197,
			"type":"VEC3"
		},
		{
			"bufferView":34,
			"componentType":5126,
			"count":1197,
			"type":"VEC2"
		},
		{
			"bufferView":35,
			"componentType":5123,
			"count":6720,
			"type":"SCALAR"
		},
		{
			"bufferView":36,
			"componentType":5126,
			"count":4,
			"max":[
				-2.460718870162964,
				0.18978166580200195,
				-0.08838877081871033
			],
			"min":[
				-2.470395565032959,
				0.18958145380020142,
				-0.19593605399131775
			],
			"type":"VEC3"
		},
		{
			"bufferView":37,
			"componentType":5126,
			"count":4,
			"type":"VEC3"
		},
		{
			"bufferView":38,
			"componentType":5126,
			"count":4,
			"type":"VEC2"
		},
		{
			"bufferView":39,
			"componentType":5123,
			"count":6,
			"type":"SCALAR"
		},
		{
			"bufferView":40,
			"componentType":5126,
			"count":60,
			"max":[
				2.5
			],
			"min":[
				0.041666666666666664
			],
			"type":"SCALAR"
		},
		{
			"bufferView":41,
			"componentType":5126,
			"count":60,
			"type":"VEC4"
		}
	],
	"bufferViews":[
		{
			"buffer":0,
			"byteLength":4673232,
			"byteOffset":0,
			"target":34962
		},
		{
			"buffer":0,
			"byteLength":4673232,
			"byteOffset":4673232,
			"target":34962
		},
		{
			"buffer":0,
			"byteLength":3115488,
			"byteOffset":9346464,
			"target":34962
		},
		{
			"buffer":0,
			"byteLength":9241056,
			"byteOffset":12461952,
			"target":34963
		},
		{
			"buffer":0,
			"byteLength":73728,
			"byteOffset":21703008,
			"target":34962
		},
		{
			"buffer":0,
			"byteLength":73728,
			"byteOffset":21776736,
			"target":34962
		},
		{
			"buffer":0,
			"byteLength":49152,
			"byteOffset":21850464,
			"target":34962
		},
		{
			"buffer":0,
			"byteLength":18432,
			"byteOffset":21899616,
			"target":34963
		},
		{
			"buffer":0,
			"byteLength":69120,
			"byteOffset":21918048,
			"target":34962
		},
		{
			"buffer":0,
			"byteLength":69120,
			"byteOffset":21987168,
			"target":34962
		},
		{
			"buffer":0,
			"byteLength":46080,
			"byteOffset":22056288,
			"target":34962
		},
		{
			"buffer":0,
			"byteLength":64512,
			"byteOffset":22102368,
			"target":34963
		},
		{
			"buffer":0,
			"byteLength":703248,
			"byteOffset":22166880,
			"target":34962
		},
		{
			"buffer":0,
			"byteLength":703248,
			"byteOffset":22870128,
			"target":34962
		},
		{
			"buffer":0,
			"byteLength":468832,
			"byteOffset":23573376,
			"target":34962
		},
		{
			"buffer":0,
			"byteLength":660144,
			"byteOffset":24042208,
			"target":34963
		},
		{
			"buffer":0,
			"byteLength":391800,
			"byteOffset":24702352,
			"target":34962
		},
		{
			"buffer":0,
			"byteLength":391800,
			"byteOffset":25094152,
			"target":34962
		},
		{
			"buffer":0,
			"byteLength":261200,
			"byteOffset":25485952,
			"target":34962
		},
		{
			"buffer":0,
			"byteLength":232800,
			"byteOffset":25747152,
			"target":34963
		},
		{
			"buffer":0,
			"byteLength":61212,
			"byteOffset":25979952,
			"target":34962
		},
		{
			"buffer":0,
			"byteLength":61212,
			"byteOffset":26041164,
			"target":34962
		},
		{
			"buffer":0,
			"byteLength":40808,
			"byteOffset":26102376,
			"target":34962
		},
		{
			"buffer":0,
			"byteLength":53184,
			"byteOffset":26143184,
			"target":34963
		},
		{
			"buffer":0,
			"byteLength":888,
			"byteOffset":26196368,
			"target":34962
		},
		{
			"buffer":0,
			"byteLength":888,
			"byteOffset":26197256,
			"target":34962
		},
		{
			"buffer":0,
			"byteLength":592,
			"byteOffset":26198144,
			"target":34962
		},
		{
			"buffer":0,
			"byteLength":384,
			"byteOffset":26198736,
			"target":34963
		},
		{
			"buffer":0,
			"byteLength":608352,
			"byteOffset":26199120,
			"target":34962
		},
		{
			"buffer":0,
			"byteLength":608352,
			"byteOffset":26807472,
			"target":34962
		},
		{
			"buffer":0,
			"byteLength":405568,
			"byteOffset":27415824,
			"target":34962
		},
		{
			"buffer":0,
			"byteLength":600948,
			"byteOffset":27821392,
			"target":34963
		},
		{
			"buffer":0,
			"byteLength":14364,
			"byteOffset":28422340,
			"target":34962
		},
		{
			"buffer":0,
			"byteLength":14364,
			"byteOffset":28436704,
			"target":34962
		},
		{
			"buffer":0,
			"byteLength":9576,
			"byteOffset":28451068,
			"target":34962
		},
		{
			"buffer":0,
			"byteLength":13440,
			"byteOffset":28460644,
			"target":34963
		},
		{
			"buffer":0,
			"byteLength":48,
			"byteOffset":28474084,
			"target":34962
		},
		{
			"buffer":0,
			"byteLength":48,
			"byteOffset":28474132,
			"target":34962
		},
		{
			"buffer":0,
			"byteLength":32,
			"byteOffset":28474180,
			"target":34962
		},
		{
			"buffer":0,
			"byteLength":12,
			"byteOffset":28474212,
			"target":34963
		},
		{
			"buffer":0,
			"byteLength":240,
			"byteOffset":28474224
		},
		{
			"buffer":0,
			"byteLength":960,
			"byteOffset":28474464
		}
	],
	"samplers":[
		{
			"magFilter":9729,
			"minFilter":9987
		}
	],
	"buffers":[
		{
			"byteLength":28475424,
			"uri":"laptop.bin"
		}
	]
}
